<?xml version="1.0" encoding="UTF-8"?>
<!DOCTYPE svg PUBLIC "-//W3C//DTD SVG 1.0//EN" "http://www.w3.org/TR/2001/REC-SVG-20010904/DTD/svg10.dtd">
<!-- Creator: CorelDRAW 2018 (64 Bit) -->
<svg xmlns="http://www.w3.org/2000/svg" xml:space="preserve" width="70px" height="70px" version="1.0" style="shape-rendering:geometricPrecision; text-rendering:geometricPrecision; image-rendering:optimizeQuality; fill-rule:evenodd; clip-rule:evenodd"
viewBox="0 0 70 70"
 xmlns:xlink="http://www.w3.org/1999/xlink">
 <defs>
  <style type="text/css">
   <![CDATA[
    .fil0 {fill:#BF0404}
   ]]>
  </style>
 </defs>
 <g id="Camada_x0020_2">
  <metadata id="CorelCorpID_0Corel-Layer"/>
  <path class="fil0" d="M39.664 25.671c3.22,0.004 5.829,2.613 5.833,5.832 0,0.644 0.522,1.167 1.166,1.167 0.644,0 1.167,-0.522 1.167,-1.167 -0.005,-4.507 -3.658,-8.16 -8.166,-8.165 -0.644,0 -1.166,0.522 -1.166,1.166 0,0.645 0.522,1.167 1.166,1.167zm28.499 28.33l-14.168 -9.448c-1.798,-1.19 -4.209,-0.798 -5.538,0.899l-4.127 5.306c-0.53,0.7 -1.494,0.903 -2.262,0.476l-0.785 -0.432c-2.602,-1.419 -5.84,-3.185 -12.365,-9.711 -6.524,-6.527 -8.293,-9.767 -9.712,-12.365l-0.43 -0.785c-0.432,-0.767 -0.233,-1.736 0.466,-2.27l5.303 -4.126c1.697,-1.329 2.089,-3.739 0.901,-5.537l-9.449 -14.169c-1.218,-1.832 -3.66,-2.381 -5.545,-1.248l-5.925 3.559c-1.862,1.094 -3.227,2.867 -3.811,4.946 -2.133,7.773 -0.528,21.189 19.235,40.954 15.721,15.72 27.424,19.947 35.468,19.947 1.851,0.008 3.695,-0.233 5.483,-0.716 2.079,-0.583 3.852,-1.949 4.946,-3.811l3.562 -5.921c1.134,-1.885 0.585,-4.329 -1.247,-5.548zm-0.763 4.351l-3.554 5.925c-0.786,1.344 -2.061,2.332 -3.558,2.757 -7.176,1.97 -19.714,0.338 -38.687,-18.635 -18.973,-18.973 -20.605,-31.509 -18.634,-38.686 0.426,-1.499 1.415,-2.776 2.761,-3.563l5.924 -3.554c0.818,-0.492 1.878,-0.253 2.406,0.541l5.133 7.706 4.308 6.462c0.516,0.78 0.347,1.825 -0.39,2.403l-5.304 4.125c-1.614,1.235 -2.075,3.468 -1.081,5.24l0.421 0.766c1.491,2.734 3.345,6.135 10.112,12.901 6.767,6.765 10.167,8.619 12.9,10.11l0.766 0.422c1.772,0.994 4.005,0.533 5.24,-1.081l4.125 -5.304c0.578,-0.735 1.623,-0.905 2.404,-0.39l14.167 9.449c0.795,0.528 1.033,1.589 0.541,2.406zm-27.736 -46.679c10.947,0.012 19.818,8.883 19.831,19.83 0,0.644 0.522,1.167 1.166,1.167 0.645,0 1.167,-0.522 1.167,-1.167 -0.014,-12.235 -9.929,-22.15 -22.163,-22.163 -0.644,0 -1.167,0.522 -1.167,1.166 0,0.645 0.522,1.167 1.166,1.167zm0 6.998c7.083,0.009 12.823,5.749 12.832,12.832 0,0.644 0.522,1.167 1.166,1.167 0.645,0 1.167,-0.522 1.167,-1.167 -0.01,-8.371 -6.793,-15.155 -15.164,-15.164 -0.644,0 -1.167,0.522 -1.167,1.166 0,0.645 0.522,1.166 1.166,1.166z"/>
 </g>
</svg>
