<?xml version="1.0" encoding="UTF-8"?>
<!DOCTYPE svg PUBLIC "-//W3C//DTD SVG 1.0//EN" "http://www.w3.org/TR/2001/REC-SVG-20010904/DTD/svg10.dtd">
<!-- Creator: CorelDRAW 2018 (64 Bit) -->
<svg xmlns="http://www.w3.org/2000/svg" xml:space="preserve" width="70px" height="70px" version="1.0" style="shape-rendering:geometricPrecision; text-rendering:geometricPrecision; image-rendering:optimizeQuality; fill-rule:evenodd; clip-rule:evenodd"
viewBox="0 0 70 70"
 xmlns:xlink="http://www.w3.org/1999/xlink">
 <defs>
  <style type="text/css">
   <![CDATA[
    .fil0 {fill:#BF0404}
   ]]>
  </style>
 </defs>
 <g id="Camada_x0020_2">
  <metadata id="CorelCorpID_0Corel-Layer"/>
  <path class="fil0" d="M57.864 43.247c-2.485,-1.38 -4.601,-2.764 -6.145,-3.774 -1.179,-0.77 -2.031,-1.326 -2.656,-1.64 -1.746,-0.87 -3.069,-0.255 -3.573,0.254 -0.063,0.063 -0.119,0.132 -0.168,0.204 -1.813,2.721 -4.181,5.323 -4.874,5.463 -0.801,-0.125 -4.55,-2.256 -8.276,-5.359 -3.805,-3.17 -6.198,-6.206 -6.549,-8.273 2.44,-2.512 3.319,-4.093 3.319,-5.891 0,-1.854 -4.323,-9.593 -5.106,-10.375 -0.784,-0.784 -2.552,-0.906 -5.254,-0.368 -0.259,0.053 -0.499,0.181 -0.687,0.368 -0.327,0.327 -7.982,8.13 -4.344,17.588 3.992,10.38 14.241,22.446 27.306,24.406 1.485,0.222 2.877,0.333 4.18,0.333 7.687,0 12.223,-3.867 13.501,-11.539 0.095,-0.562 -0.176,-1.121 -0.674,-1.397zm-22.864 -43.247c-19.3,0 -35,15.7 -35,35 0,6.584 1.83,12.976 5.3,18.526 -1.383,4.843 -3.88,14.005 -3.907,14.101 -0.129,0.474 0.01,0.98 0.364,1.32 0.354,0.341 0.865,0.462 1.331,0.319l13.874 -4.267c5.434,3.274 11.657,5.001 18.038,5.001 19.3,0 35,-15.7 35,-35 0,-19.3 -15.7,-35 -35,-35zm0 67.308c-6.083,0 -12.009,-1.7 -17.138,-4.915 -0.217,-0.136 -0.466,-0.205 -0.715,-0.205 -0.133,0 -0.266,0.021 -0.396,0.06l-12.114 3.728c0.89,-3.248 2.489,-9.058 3.417,-12.29 0.108,-0.374 0.047,-0.778 -0.164,-1.105 -3.401,-5.233 -5.198,-11.312 -5.198,-17.581 0,-17.814 14.494,-32.308 32.308,-32.308 17.814,0 32.308,14.494 32.308,32.308 0,17.814 -14.494,32.308 -32.308,32.308zm6.257 -14.12c-13.817,-2.072 -22.52,-15.761 -25.193,-22.71 -2.652,-6.892 2.238,-13.037 3.466,-14.426 0.999,-0.17 2.05,-0.241 2.489,-0.173 0.916,1.275 4.091,7.272 4.231,8.352 0,0.707 -0.23,1.691 -2.971,4.433 -0.253,0.251 -0.394,0.593 -0.394,0.951 0,7.049 14.867,16.827 17.499,16.827 2.29,0 5.276,-3.848 6.976,-6.356 0.098,0.004 0.264,0.038 0.5,0.156 0.484,0.244 1.324,0.792 2.386,1.486 1.403,0.917 3.266,2.134 5.466,3.395 -0.999,4.806 -3.791,9.667 -14.455,8.065z"/>
 </g>
</svg>
